<svg xmlns="http://www.w3.org/2000/svg" version="1.1" xmlns:xlink="http://www.w3.org/1999/xlink" width="1000" height="1000"><g clip-path="url(#SvgjsClipPath1001)"><rect width="1000" height="1000" fill="#ffffff"></rect><g transform="matrix(3.5,0,0,3.5,150,150)"><svg xmlns="http://www.w3.org/2000/svg" version="1.1" xmlns:xlink="http://www.w3.org/1999/xlink" viewBox="0 0 200 200" width="200" height="200"><rect width="200" height="200" fill="url('#gradient')"></rect><defs><linearGradient id="gradient" gradientTransform="rotate(45 0.5 0.5)"><stop offset="0%" stop-color="#0ab5fa"></stop><stop offset="100%" stop-color="#000000"></stop></linearGradient><clipPath id="SvgjsClipPath1001"><rect width="1000" height="1000" x="0" y="0" rx="350" ry="350"></rect></clipPath></defs><g><g fill="#9db9d6" transform="matrix(2.7954022988505747,0,0,2.7954022988505747,3.2517522672127086,119.86570751146338)" stroke="#000000" stroke-width="0.2"><path d="M8.41-3.78L8.41-3.78Q8.41-4.53 7.88-4.95Q7.34-5.37 6.01-5.82Q4.67-6.27 3.82-6.69L3.82-6.69Q1.05-8.05 1.05-10.42L1.05-10.42Q1.05-11.60 1.74-12.50Q2.43-13.41 3.69-13.91Q4.95-14.41 6.52-14.41L6.52-14.41Q8.06-14.41 9.27-13.87Q10.49-13.32 11.16-12.31Q11.84-11.30 11.84-10L11.84-10L8.42-10Q8.42-10.87 7.89-11.35Q7.35-11.83 6.45-11.83L6.45-11.83Q5.53-11.83 5.00-11.42Q4.46-11.02 4.46-10.39L4.46-10.39Q4.46-9.84 5.05-9.40Q5.63-8.96 7.11-8.48Q8.58-8.01 9.53-7.46L9.53-7.46Q11.84-6.13 11.84-3.80L11.84-3.80Q11.84-1.93 10.43-0.87Q9.02 0.20 6.57 0.20L6.57 0.20Q4.84 0.20 3.44-0.42Q2.04-1.04 1.33-2.12Q0.63-3.20 0.63-4.61L0.63-4.61L4.06-4.61Q4.06-3.47 4.65-2.92Q5.24-2.38 6.57-2.38L6.57-2.38Q7.42-2.38 7.92-2.75Q8.41-3.12 8.41-3.78ZM18.55 0.20L18.55 0.20Q16.12 0.20 14.62-1.25Q13.12-2.71 13.12-5.03L13.12-5.03L13.12-5.30Q13.12-6.92 13.72-8.16Q14.32-9.40 15.47-10.08Q16.62-10.76 18.20-10.76L18.20-10.76Q20.43-10.76 21.72-9.38Q23.01-8.00 23.01-5.53L23.01-5.53L23.01-4.25L16.46-4.25Q16.64-3.36 17.24-2.85Q17.83-2.34 18.78-2.34L18.78-2.34Q20.34-2.34 21.22-3.44L21.22-3.44L22.72-1.66Q22.11-0.81 20.98-0.31Q19.85 0.20 18.55 0.20ZM18.18-8.22L18.18-8.22Q16.74-8.22 16.46-6.31L16.46-6.31L19.79-6.31L19.79-6.56Q19.80-7.35 19.38-7.79Q18.96-8.22 18.18-8.22ZM28.80-2.34L28.80-2.34Q29.49-2.34 29.87-2.72Q30.25-3.10 30.24-3.77L30.24-3.77L33.33-3.77Q33.33-2.03 32.08-0.92Q30.84 0.20 28.88 0.20L28.88 0.20Q26.57 0.20 25.24-1.25Q23.92-2.70 23.92-5.25L23.92-5.25L23.92-5.39Q23.92-6.99 24.51-8.22Q25.10-9.44 26.21-10.10Q27.32-10.76 28.85-10.76L28.85-10.76Q30.91-10.76 32.12-9.62Q33.33-8.48 33.33-6.52L33.33-6.52L30.24-6.52Q30.24-7.34 29.84-7.78Q29.44-8.22 28.77-8.22L28.77-8.22Q27.49-8.22 27.28-6.59L27.28-6.59Q27.21-6.07 27.21-5.17L27.21-5.17Q27.21-3.57 27.59-2.96Q27.97-2.34 28.80-2.34ZM41.17-10.64L41.11-7.59L40.03-7.67Q38.48-7.67 38.04-6.69L38.04-6.69L38.04 0L34.75 0L34.75-10.57L37.83-10.57L37.94-9.21Q38.77-10.76 40.25-10.76L40.25-10.76Q40.78-10.76 41.17-10.64L41.17-10.64ZM47.23 0.20L47.23 0.20Q44.79 0.20 43.29-1.25Q41.79-2.71 41.79-5.03L41.79-5.03L41.79-5.30Q41.79-6.92 42.39-8.16Q42.99-9.40 44.14-10.08Q45.29-10.76 46.88-10.76L46.88-10.76Q49.10-10.76 50.39-9.38Q51.68-8.00 51.68-5.53L51.68-5.53L51.68-4.25L45.14-4.25Q45.31-3.36 45.91-2.85Q46.50-2.34 47.45-2.34L47.45-2.34Q49.01-2.34 49.89-3.44L49.89-3.44L51.40-1.66Q50.78-0.81 49.65-0.31Q48.53 0.20 47.23 0.20ZM46.86-8.22L46.86-8.22Q45.41-8.22 45.14-6.31L45.14-6.31L48.46-6.31L48.46-6.56Q48.48-7.35 48.06-7.79Q47.64-8.22 46.86-8.22ZM53.54-13.19L56.84-13.19L56.84-10.57L58.57-10.57L58.57-8.28L56.84-8.28L56.84-3.45Q56.84-2.85 57.05-2.62Q57.27-2.38 57.90-2.38L57.90-2.38Q58.39-2.38 58.72-2.44L58.72-2.44L58.72-0.09Q57.83 0.20 56.87 0.20L56.87 0.20Q55.17 0.20 54.36-0.61Q53.54-1.41 53.54-3.04L53.54-3.04L53.54-8.28L52.20-8.28L52.20-10.57L53.54-10.57L53.54-13.19ZM65.40-2.97L65.40-2.97Q65.40-3.39 64.96-3.64Q64.52-3.90 63.29-4.17Q62.06-4.44 61.26-4.89Q60.46-5.33 60.04-5.97Q59.62-6.60 59.62-7.42L59.62-7.42Q59.62-8.88 60.82-9.82Q62.02-10.76 63.96-10.76L63.96-10.76Q66.05-10.76 67.32-9.81Q68.59-8.87 68.59-7.32L68.59-7.32L65.29-7.32Q65.29-8.59 63.96-8.59L63.96-8.59Q63.44-8.59 63.09-8.31Q62.73-8.02 62.73-7.59L62.73-7.59Q62.73-7.15 63.16-6.88Q63.59-6.60 64.54-6.43Q65.48-6.25 66.19-6.01L66.19-6.01Q68.57-5.19 68.57-3.07L68.57-3.07Q68.57-1.62 67.29-0.71Q66.01 0.20 63.96 0.20L63.96 0.20Q62.61 0.20 61.54-0.29Q60.48-0.78 59.88-1.62Q59.29-2.46 59.29-3.39L59.29-3.39L62.36-3.39Q62.38-2.66 62.85-2.32Q63.32-1.98 64.05-1.98L64.05-1.98Q64.73-1.98 65.06-2.26Q65.40-2.53 65.40-2.97Z"></path></g></g></svg></g></g></svg>